<svg xmlns="http://www.w3.org/2000/svg" width="900" height="320" viewBox="0 0 900 320">
  <rect width="100%" height="100%" fill="#ffffff"/>
  <line x1="56" y1="24" x2="56" y2="276" stroke="#222" stroke-width="1"/>
  <line x1="56" y1="276" x2="876" y2="276" stroke="#222" stroke-width="1"/>
  <polyline points="56.00,24.00 119.08,24.00 182.15,24.00 245.23,24.00 308.31,24.00 371.38,24.00 434.46,24.00 497.54,24.00 560.62,24.00 623.69,24.00 686.77,24.00 749.85,24.00 812.92,24.00 876.00,24.00" fill="none" stroke="#0b6e4f" stroke-width="2.5"/>
  <polyline points="56.00,167.96 119.08,143.26 182.15,146.77 245.23,141.10 308.31,151.41 371.38,140.78 434.46,139.83 497.54,144.41 560.62,136.37 623.69,141.28 686.77,136.38 749.85,137.22 812.92,142.86 876.00,138.08" fill="none" stroke="#b13f2a" stroke-width="2" stroke-dasharray="5 4"/>
  <text x="56" y="18" font-family="sans-serif" font-size="13" fill="#0b6e4f">budget</text>
  <text x="132" y="18" font-family="sans-serif" font-size="13" fill="#b13f2a">p_frag</text>
  <text x="56" y="308" font-family="sans-serif" font-size="12" fill="#333">samples: 14</text>
</svg>
