<svg xmlns="http://www.w3.org/2000/svg" width="900" height="320" viewBox="0 0 900 320">
  <rect width="100%" height="100%" fill="#ffffff"/>
  <line x1="56" y1="24" x2="56" y2="276" stroke="#222" stroke-width="1"/>
  <line x1="56" y1="276" x2="876" y2="276" stroke="#222" stroke-width="1"/>
  <polyline points="56.00,24.00 124.33,45.00 192.67,45.00 261.00,45.00 329.33,66.00 397.67,66.00 466.00,87.00 534.33,87.00 602.67,108.00 671.00,108.00 739.33,129.00 807.67,150.00 876.00,150.00" fill="none" stroke="#0b6e4f" stroke-width="2.5"/>
  <polyline points="56.00,159.78 124.33,143.52 192.67,146.87 261.00,150.07 329.33,146.24 397.67,145.77 466.00,159.50 534.33,139.11 602.67,137.19 671.00,155.76 739.33,145.99 807.67,146.73 876.00,147.98" fill="none" stroke="#b13f2a" stroke-width="2" stroke-dasharray="5 4"/>
  <text x="56" y="18" font-family="sans-serif" font-size="13" fill="#0b6e4f">budget</text>
  <text x="132" y="18" font-family="sans-serif" font-size="13" fill="#b13f2a">p_frag</text>
  <text x="56" y="308" font-family="sans-serif" font-size="12" fill="#333">samples: 13</text>
</svg>
