<svg xmlns="http://www.w3.org/2000/svg" width="900" height="320" viewBox="0 0 900 320">
  <rect width="100%" height="100%" fill="#ffffff"/>
  <line x1="56" y1="24" x2="56" y2="276" stroke="#222" stroke-width="1"/>
  <line x1="56" y1="276" x2="876" y2="276" stroke="#222" stroke-width="1"/>
  <polyline points="56.00,24.00 101.56,45.00 147.11,45.00 192.67,45.00 238.22,66.00 283.78,66.00 329.33,87.00 374.89,87.00 420.44,108.00 466.00,129.00 511.56,129.00 557.11,150.00 602.67,150.00 648.22,171.00 693.78,192.00 739.33,213.00 784.89,213.00 830.44,234.00 876.00,234.00" fill="none" stroke="#0b6e4f" stroke-width="2.5"/>
  <polyline points="56.00,150.49 101.56,151.07 147.11,151.24 192.67,147.33 238.22,139.08 283.78,149.26 329.33,145.67 374.89,139.06 420.44,140.20 466.00,140.45 511.56,135.31 557.11,138.11 602.67,142.64 648.22,146.37 693.78,147.19 739.33,147.48 784.89,144.66 830.44,142.36 876.00,148.50" fill="none" stroke="#b13f2a" stroke-width="2" stroke-dasharray="5 4"/>
  <text x="56" y="18" font-family="sans-serif" font-size="13" fill="#0b6e4f">budget</text>
  <text x="132" y="18" font-family="sans-serif" font-size="13" fill="#b13f2a">p_frag</text>
  <text x="56" y="308" font-family="sans-serif" font-size="12" fill="#333">samples: 19</text>
</svg>
