<svg xmlns="http://www.w3.org/2000/svg" width="900" height="320" viewBox="0 0 900 320">
  <rect width="100%" height="100%" fill="#ffffff"/>
  <line x1="56" y1="24" x2="56" y2="276" stroke="#222" stroke-width="1"/>
  <line x1="56" y1="276" x2="876" y2="276" stroke="#222" stroke-width="1"/>
  <polyline points="56.00,24.00 104.24,45.00 152.47,45.00 200.71,45.00 248.94,66.00 297.18,66.00 345.41,87.00 393.65,87.00 441.88,108.00 490.12,129.00 538.35,129.00 586.59,150.00 634.82,150.00 683.06,171.00 731.29,192.00 779.53,213.00 827.76,213.00 876.00,234.00" fill="none" stroke="#0b6e4f" stroke-width="2.5"/>
  <polyline points="56.00,159.44 104.24,151.26 152.47,138.38 200.71,133.16 248.94,140.30 297.18,147.27 345.41,152.22 393.65,150.47 441.88,143.25 490.12,138.99 538.35,142.35 586.59,136.24 634.82,145.81 683.06,143.45 731.29,143.58 779.53,141.93 827.76,139.89 876.00,142.01" fill="none" stroke="#b13f2a" stroke-width="2" stroke-dasharray="5 4"/>
  <text x="56" y="18" font-family="sans-serif" font-size="13" fill="#0b6e4f">budget</text>
  <text x="132" y="18" font-family="sans-serif" font-size="13" fill="#b13f2a">p_frag</text>
  <text x="56" y="308" font-family="sans-serif" font-size="12" fill="#333">samples: 18</text>
</svg>
