<svg xmlns="http://www.w3.org/2000/svg" width="900" height="320" viewBox="0 0 900 320">
  <rect width="100%" height="100%" fill="#ffffff"/>
  <line x1="56" y1="24" x2="56" y2="276" stroke="#222" stroke-width="1"/>
  <line x1="56" y1="276" x2="876" y2="276" stroke="#222" stroke-width="1"/>
  <polyline points="56.00,24.00 114.57,24.00 173.14,24.00 231.71,24.00 290.29,24.00 348.86,24.00 407.43,24.00 466.00,24.00 524.57,24.00 583.14,24.00 641.71,24.00 700.29,24.00 758.86,24.00 817.43,24.00 876.00,24.00" fill="none" stroke="#0b6e4f" stroke-width="2.5"/>
  <polyline points="56.00,158.22 114.57,144.49 173.14,156.35 231.71,152.39 290.29,138.94 348.86,149.36 407.43,145.81 466.00,143.50 524.57,145.45 583.14,144.10 641.71,136.19 700.29,140.59 758.86,138.95 817.43,137.04 876.00,138.26" fill="none" stroke="#b13f2a" stroke-width="2" stroke-dasharray="5 4"/>
  <text x="56" y="18" font-family="sans-serif" font-size="13" fill="#0b6e4f">budget</text>
  <text x="132" y="18" font-family="sans-serif" font-size="13" fill="#b13f2a">p_frag</text>
  <text x="56" y="308" font-family="sans-serif" font-size="12" fill="#333">samples: 15</text>
</svg>
